<svg xmlns="http://www.w3.org/2000/svg" width="257" height="140" fill="none" viewBox="0 0 257 140"><rect width="255.746" height="137.902" x=".627" y=".627" fill="#121212" stroke="#363636" stroke-width="1.254" rx="1.88"/><rect width="43.878" height="3.761" x="8.149" y="9.402" stroke="#363636" stroke-width="1.254" rx="1.88"/><rect width="43.878" height="3.761" x="8.149" y="20.685" fill="#363636" stroke="#363636" stroke-width="1.254" rx="1.88"/><rect width="43.878" height="3.761" x="8.149" y="29.461" fill="#363636" stroke="#363636" stroke-width="1.254" rx="1.88"/><rect width="43.878" height="3.761" x="8.149" y="38.237" fill="#363636" stroke="#363636" stroke-width="1.254" rx="1.88"/><rect width="43.878" height="3.761" x="8.149" y="47.012" fill="#363636" stroke="#363636" stroke-width="1.254" rx="1.88"/><rect width="27.581" height="20.058" x="221.271" y="9.402" fill="#363636" stroke="#363636" stroke-width="1.254" rx="1.88"/><path fill="#363636" stroke="#363636" stroke-width="1.254" d="M200.585 39.4904H224.405C225.443 39.4905 226.285 40.332 226.285 41.3702V100.293C226.285 101.331 225.443 102.173 224.405 102.173H200.585C199.547 102.173 198.705 101.331 198.705 100.293V41.3702C198.705 40.3321 199.547 39.4906 200.585 39.4904Z"/><path fill="#363636" stroke="#363636" stroke-width="1.254" d="M71.127 14.5712L71.127 11.5849C71.1272 10.5467 71.9687 9.70525 73.0068 9.70499L175.993 9.70498C177.031 9.70524 177.873 10.5467 177.873 11.5849L177.873 14.5712C177.873 15.6094 177.031 16.4508 175.993 16.4511L73.0068 16.4511C71.9687 16.4508 71.1272 15.6094 71.127 14.5712Z"/><path fill="#402D38" fill-opacity=".5" d="M109.007 46.078C107.623 46.078 106.5 44.9555 106.5 43.5707L106.5 27.5854C106.5 26.2006 107.623 25.078 109.007 25.078L175.993 25.078C177.377 25.078 178.5 26.2006 178.5 27.5854L178.5 43.5707C178.5 44.9555 177.377 46.078 175.993 46.078L109.007 46.078Z"/><path fill="#363636" fill-opacity=".5" d="M73.0073 35.078C71.6226 35.078 70.5 33.9555 70.5 32.5707L70.5 27.5854C70.5 26.2006 71.6226 25.078 73.0073 25.078L99.9927 25.078C101.377 25.078 102.5 26.2006 102.5 27.5854L102.5 32.5707C102.5 33.9555 101.377 35.078 99.9927 35.078L73.0073 35.078Z"/><path fill="#363636" fill-opacity=".5" d="M73.0073 49.078C71.6226 49.078 70.5 47.9555 70.5 46.5707L70.5 41.5854C70.5 40.2006 71.6226 39.078 73.0073 39.078L99.9927 39.078C101.377 39.078 102.5 40.2006 102.5 41.5854L102.5 46.5707C102.5 47.9555 101.377 49.078 99.9927 49.078L73.0073 49.078Z"/><path fill="#363636" fill-opacity=".5" d="M73.0073 64.078C71.6226 64.078 70.5 62.9555 70.5 61.5707L70.5 56.5854C70.5 55.2006 71.6226 54.078 73.0073 54.078L99.9927 54.078C101.377 54.078 102.5 55.2006 102.5 56.5854L102.5 61.5707C102.5 62.9555 101.377 64.078 99.9927 64.078L73.0073 64.078Z"/><path fill="#363636" fill-opacity=".5" d="M73.0073 78.078C71.6226 78.078 70.5 76.9555 70.5 75.5707L70.5 70.5854C70.5 69.2006 71.6226 68.078 73.0073 68.078L99.9927 68.078C101.377 68.078 102.5 69.2006 102.5 70.5854L102.5 75.5707C102.5 76.9555 101.377 78.078 99.9927 78.078L73.0073 78.078Z"/><path fill="#2D4040" fill-opacity=".5" d="M109.007 70.078C107.623 70.078 106.5 68.9555 106.5 67.5707L106.5 51.5854C106.5 50.2006 107.623 49.078 109.007 49.078L175.993 49.078C177.377 49.078 178.5 50.2006 178.5 51.5854L178.5 67.5707C178.5 68.9555 177.377 70.078 175.993 70.078L109.007 70.078Z"/><path fill="#363636" fill-opacity=".5" d="M109.007 117.078C107.623 117.078 106.5 115.955 106.5 114.571L106.5 75.5854C106.5 74.2006 107.623 73.078 109.007 73.078L175.993 73.078C177.377 73.078 178.5 74.2006 178.5 75.5854L178.5 114.571C178.5 115.955 177.377 117.078 175.993 117.078L109.007 117.078Z"/><rect width="23.82" height="3.761" x="8.149" y="64.563" fill="#363636" stroke="#363636" stroke-width="1.254" rx="1.88"/><rect width="50.146" height="20.058" x="198.705" y="109.695" stroke="#363636" stroke-width="1.254" rx="1.88"/><rect width="6.268" height="6.268" x="237.568" y="118.471" fill="#D9D9D9" stroke="#D9D9D9" stroke-width="1.254" rx="3.134"/><path stroke="#363636" stroke-width="1.254" d="M58.6086 0L58.6086 139.156"/><path stroke="gray" stroke-opacity=".3" stroke-width="3.25" d="M159.5 33.078H114.5"/><path stroke="gray" stroke-width="1.254" d="M171.5 39.078L114.5 39.078"/><path stroke="#363636" stroke-width="1.254" d="M190.243 0L190.243 139.156"/><path stroke="gray" stroke-opacity=".3" stroke-width="3.25" d="M159.5 57.078H114.5"/><path stroke="gray" stroke-width="1.254" d="M171.5 63.078L114.5 63.078"/><path stroke="gray" stroke-opacity=".3" stroke-width="3.25" d="M159.5 102.078H114.5"/><path stroke="gray" stroke-width="1.254" d="M171.5 108.078H114.5"/><path stroke="gray" stroke-opacity=".3" stroke-width="3.25" d="M159.5 82.078H114.5"/><path stroke="gray" stroke-width="1.254" d="M171.5 88.078H114.5"/><path stroke="#AA5BF5" d="M76 41.5989L76 33.078"/><circle cx="76" cy="30.578" r="3" stroke="#AA5BF5" stroke-dasharray="1.23 1.23"/><path stroke="#AA5BF5" d="M75.9583 56.3489L75.9583 46.5155"/><path stroke="url(#paint0_linear_6701_571)" d="M75.9583 116.349L75.9583 76.5155"/><circle cx="76" cy="44.099" r="2.5" stroke="#AA5BF5"/><path stroke="#AA5BF5" d="M75.9583 71.0989L75.9583 61.2656"/><circle cx="76" cy="58.849" r="2.5" stroke="#AA5BF5"/><circle cx="76" cy="73.599" r="2.5" stroke="#AA5BF5"/><defs><linearGradient id="paint0_linear_6701_571" x1="75.958" x2="75.958" y1="76.516" y2="116.349" gradientUnits="userSpaceOnUse"><stop stop-color="#AA5BF5"/><stop offset="1" stop-color="#121212"/></linearGradient></defs></svg>