<svg xmlns="http://www.w3.org/2000/svg" width="257" height="140" fill="none" viewBox="0 0 257 140"><rect width="255.746" height="137.902" x=".627" y=".627" fill="#FEFEFE" stroke="#DDD" stroke-width="1.254" rx="1.88"/><path stroke="#AA5BF5" stroke-opacity=".3" stroke-width="4.25" d="M128.5 17.078L72.5 17.078"/><path stroke="#AA5BF5" stroke-opacity=".3" stroke-width="4.25" d="M128.5 76.078H72.5"/><path stroke="#AA5BF5" stroke-opacity=".3" stroke-width="4.25" d="M128.5 86.078H72.5"/><path stroke="#00A02E" stroke-opacity=".3" stroke-width="4.25" d="M128.5 27.078L82.5 27.078"/><path stroke="#00A02E" stroke-opacity=".3" stroke-width="4.25" d="M128.5 107.078H122.5"/><path stroke="#00A02E" stroke-opacity=".3" stroke-width="4.25" d="M128.5 66.078H82.5"/><path stroke="#309FC7" stroke-opacity=".3" stroke-width="4.25" d="M128.5 37.078H92.5"/><path stroke="#C7B830" stroke-opacity=".3" stroke-width="4.25" d="M128.5 47.078H102.5"/><path stroke="#C7308B" stroke-opacity=".3" stroke-width="4.25" d="M128.5 57.078H112.5"/><path stroke="#C7308B" stroke-opacity=".2" stroke-width="4.25" d="M128.5 97.078H72.5"/><rect width="43.878" height="3.761" x="8.149" y="9.402" stroke="#DDD" stroke-width="1.254" rx="1.88"/><rect width="43.878" height="3.761" x="8.149" y="20.685" fill="#DDD" stroke="#DDD" stroke-width="1.254" rx="1.88"/><rect width="43.878" height="3.761" x="8.149" y="29.461" fill="#DDD" stroke="#DDD" stroke-width="1.254" rx="1.88"/><rect width="43.878" height="3.761" x="8.149" y="38.237" fill="#DDD" stroke="#DDD" stroke-width="1.254" rx="1.88"/><rect width="43.878" height="3.761" x="8.149" y="47.012" fill="#DDD" stroke="#DDD" stroke-width="1.254" rx="1.88"/><rect width="27.581" height="20.058" x="221.271" y="9.402" fill="#DDD" stroke="#DDD" stroke-width="1.254" rx="1.88"/><path fill="#DDD" stroke="#DDD" stroke-width="1.254" d="M200.585 39.4904H224.405C225.444 39.4905 226.285 40.332 226.285 41.3702V100.293C226.285 101.331 225.444 102.173 224.405 102.173H200.585C199.547 102.173 198.705 101.331 198.705 100.293V41.3702C198.705 40.3321 199.547 39.4906 200.585 39.4904Z"/><rect width="23.82" height="3.761" x="8.149" y="64.563" fill="#DDD" stroke="#DDD" stroke-width="1.254" rx="1.88"/><rect width="50.146" height="20.058" x="198.705" y="109.695" stroke="#DDD" stroke-width="1.254" rx="1.88"/><rect width="7.522" height="7.522" x="236.941" y="117.844" fill="#9C9C9C" rx="3.761"/><path stroke="#DDD" stroke-width="1.254" d="M58.6084 0L58.6084 139.156"/><path stroke="#DDD" stroke-width="1.254" d="M190.5 119.078L59.5 119.078"/><path stroke="#DDD" stroke-width="1.254" d="M190.243 0L190.243 139.156"/><path stroke="#C180FF" stroke-width="1.254" d="M69.5 118.078L69.5 99.0781"/><path stroke="#C180FF" stroke-width="1.254" d="M69.5 73.0781L69.5 20.0781"/><path stroke="#C180FF" stroke-width="1.254" d="M69.5 83.078L69.5 79.078"/><path stroke="#C180FF" stroke-width="1.254" d="M69.5 93.078L69.5 89.078"/><path stroke="#37D865" stroke-width="1.254" d="M79.5 118.078L79.5 69.078"/><path stroke="#37D865" stroke-width="1.254" d="M79.5 62.6171L79.5 29.6171"/><path stroke="#47E2D8" stroke-width="1.254" d="M89.5 118.078L89.5 40.0781"/><path stroke="#E9BF51" stroke-width="1.254" d="M99.5 118.078L99.5 50.0781"/><path stroke="#FF7CDA" stroke-width="1.254" d="M109.5 60.078L109.5 94.0781C109.5 95.7349 108.157 97.0781 106.5 97.0781L72.5 97.0781"/><circle cx="109.5" cy="57.078" r="3" stroke="#FF7CDA" stroke-width="1.254"/><circle cx="99.5" cy="47.078" r="3" stroke="#E9BF51" stroke-width="1.254"/><path stroke="#A3F16A" stroke-width="1.254" d="M119.5 118.078L119.5 109.078"/><circle cx="119.5" cy="106.078" r="3" stroke="#A3F16A" stroke-width="1.254"/><circle cx="89.5" cy="37.078" r="3" stroke="#47E2D8" stroke-width="1.254"/><circle cx="79.5" cy="27.078" r="3" stroke="#37D865" stroke-width="1.254"/><circle cx="79.5" cy="66.078" r="3" stroke="#37D865" stroke-width="1.254"/><circle cx="69.5" cy="17.078" r="3" stroke="#C180FF" stroke-width="1.254"/><circle cx="69.5" cy="96.078" r="3" stroke="#C180FF" stroke-width="1.254"/><circle cx="69.5" cy="86.078" r="3" stroke="#C180FF" stroke-width="1.254"/><circle cx="69.5" cy="76.078" r="3" stroke="#C180FF" stroke-width="1.254"/><path stroke="gray" stroke-width="1.254" d="M178.5 17.0781L135.5 17.0781"/><path stroke="gray" stroke-width="1.254" d="M163.5 27.0781L135.5 27.0781"/><path stroke="gray" stroke-width="1.254" d="M178.5 37.0781H135.5"/><path stroke="gray" stroke-width="1.254" d="M163.5 47.0781H135.5"/><path stroke="gray" stroke-width="1.254" d="M178.5 57.0781H135.5"/><path stroke="gray" stroke-width="1.254" d="M163.5 67.0781H135.5"/><path stroke="gray" stroke-width="1.254" d="M178.5 77.0781H135.5"/><path stroke="gray" stroke-width="1.254" d="M163.5 87.0781H135.5"/><path stroke="gray" stroke-width="1.254" d="M178.5 97.0781H135.5"/><path stroke="gray" stroke-width="1.254" d="M163.5 107.078H135.5"/></svg>